<?xml version="1.0" encoding="UTF-8" standalone="no"?>
<!DOCTYPE svg PUBLIC "-//W3C//DTD SVG 1.1//EN" "http://www.w3.org/Graphics/SVG/1.1/DTD/svg11.dtd">
<svg width="100%" height="100%" viewBox="0 0 128 128" version="1.1" xmlns="http://www.w3.org/2000/svg" xmlns:xlink="http://www.w3.org/1999/xlink" xml:space="preserve" xmlns:serif="http://www.serif.com/" style="fill-rule:evenodd;clip-rule:evenodd;stroke-linejoin:round;stroke-miterlimit:2;">
    <g transform="matrix(0.5,0,0,0.5,0,0)">
        <rect x="0" y="0" width="256" height="256" style="fill:white;"/>
    </g>
    <g transform="matrix(0.5,0,0,0.5,0,0)">
        <path d="M164.622,89.203C169.41,89.203 171.328,89.203 171.328,84.649C171.328,82.269 169.41,82.269 165.103,82.269L145.701,82.269C150.246,57.596 153.607,40.593 155.525,32.933C156.961,27.181 161.995,21.673 168.219,21.673C173.236,21.673 178.27,23.837 180.669,25.98C171.327,26.955 168.446,33.887 168.446,37.949C168.446,42.748 172.044,45.629 176.588,45.629C181.377,45.629 188.556,41.549 188.556,32.452C188.556,22.401 178.505,16.885 167.973,16.885C157.668,16.885 147.619,24.546 142.828,33.888C138.522,42.276 136.118,50.891 130.615,82.27L114.567,82.27C110.013,82.27 107.629,82.27 107.629,86.577C107.629,89.204 109.066,89.204 113.854,89.204L129.18,89.204C124.873,111.476 115.049,165.601 109.547,191.219C105.466,212.056 101.872,229.531 89.9,229.531C89.191,229.531 82.24,229.531 77.932,224.978C90.14,224.034 90.14,213.493 90.14,213.255C90.14,208.467 86.546,205.596 81.997,205.596C77.204,205.596 70.024,209.656 70.024,218.753C70.024,229.059 80.561,234.319 89.899,234.319C114.321,234.319 124.39,190.509 127.016,178.522C131.324,160.084 143.064,96.401 144.264,89.204L164.622,89.204" style="fill-rule:nonzero;"/>
    </g>
</svg>
